<mxfile host="app.diagrams.net" modified="2023-08-31T23:49:04.525Z" agent="Mozilla/5.0 (Windows NT 10.0; Win64; x64) AppleWebKit/537.36 (KHTML, like Gecko) Chrome/116.0.0.0 Safari/537.36" version="21.7.1" etag="dU0fEy0_845M_4MuHN0f" type="github">
  <diagram name="PÃ¡gina-1" id="ylYgyw5W7tvSihktAD71">
    <mxGraphModel>
      <root>
        <mxCell id="0" />
        <mxCell id="1" parent="0" />
      </root>
    </mxGraphModel>
  </diagram>
</mxfile>
